<?xml version="1.0" encoding="UTF-8" standalone="no"?>
<svg
   xmlns:dc="http://purl.org/dc/elements/1.1/"
   xmlns:cc="http://creativecommons.org/ns#"
   xmlns:rdf="http://www.w3.org/1999/02/22-rdf-syntax-ns#"
   xmlns:svg="http://www.w3.org/2000/svg"
   xmlns="http://www.w3.org/2000/svg"
   xmlns:sodipodi="http://sodipodi.sourceforge.net/DTD/sodipodi-0.dtd"
   xmlns:inkscape="http://www.inkscape.org/namespaces/inkscape"
   version="1.1"
   id="svg2"
   xml:space="preserve"
   width="113.38667"
   height="29.013332"
   viewBox="0 0 113.38667 29.013332"
   sodipodi:docname="institut-de-ciencies-del-mar.eps"><metadata
     id="metadata8"><rdf:RDF><cc:Work
         rdf:about=""><dc:format>image/svg+xml</dc:format><dc:type
           rdf:resource="http://purl.org/dc/dcmitype/StillImage" /></cc:Work></rdf:RDF></metadata><defs
     id="defs6" /><sodipodi:namedview
     pagecolor="#ffffff"
     bordercolor="#666666"
     borderopacity="1"
     objecttolerance="10"
     gridtolerance="10"
     guidetolerance="10"
     inkscape:pageopacity="0"
     inkscape:pageshadow="2"
     inkscape:window-width="640"
     inkscape:window-height="480"
     id="namedview4" /><g
     id="g10"
     inkscape:groupmode="layer"
     inkscape:label="ink_ext_XXXXXX"
     transform="matrix(1.3333333,0,0,-1.3333333,0,29.013333)"><g
       id="g12"
       transform="scale(0.1)"><path
         d="m 401.855,157.852 h 13.43 v 57.023 h -13.43 v -57.023"
         style="fill:#20315e;fill-opacity:1;fill-rule:evenodd;stroke:none"
         id="path14" /><path
         d="m 449.074,199.941 c 2.528,0 4.84,-0.402 6.946,-1.23 2.093,-0.816 3.894,-1.977 5.406,-3.523 1.515,-1.54 2.687,-3.387 3.523,-5.563 0.836,-2.187 1.246,-4.629 1.246,-7.336 v -24.461 h -12.484 v 22.188 c 0,2.722 -0.742,4.839 -2.191,6.355 -1.442,1.488 -3.34,2.258 -5.688,2.258 -2.348,0 -4.246,-0.77 -5.687,-2.258 -1.454,-1.516 -2.176,-3.633 -2.176,-6.355 v -22.188 h -12.5 v 41.664 h 9.246 l 1.859,-4.082 c 0.992,0.84 2.129,1.61 3.426,2.274 1.113,0.531 2.434,1.043 3.98,1.523 1.54,0.488 3.243,0.734 5.094,0.734"
         style="fill:#20315e;fill-opacity:1;fill-rule:evenodd;stroke:none"
         id="path16" /><path
         d="m 485.172,171.414 c 0.254,-1.375 0.836,-2.488 1.769,-3.293 0.93,-0.828 2.188,-1.23 3.797,-1.23 1.598,0 2.844,0.367 3.75,1.136 0.895,0.746 1.332,1.586 1.332,2.489 0,0.718 -0.535,1.308 -1.621,1.761 -1.078,0.45 -2.422,0.899 -4.015,1.348 -1.61,0.473 -3.356,0.992 -5.243,1.586 -1.886,0.617 -3.617,1.406 -5.226,2.398 -1.61,0.996 -2.942,2.325 -4.031,3.946 -1.075,1.629 -1.621,3.679 -1.621,6.164 0,1.691 0.378,3.301 1.113,4.84 0.742,1.535 1.804,2.875 3.195,4.035 1.395,1.148 3.086,2.07 5.082,2.742 2.008,0.711 4.285,1.055 6.813,1.055 5.554,0 9.777,-1.207 12.691,-3.61 2.895,-2.437 4.684,-5.429 5.363,-9.062 l -12.031,-0.903 c -0.266,0.903 -0.797,1.719 -1.668,2.489 -0.871,0.742 -2.008,1.125 -3.422,1.125 -1.429,0 -2.469,-0.297 -3.16,-0.914 -0.664,-0.602 -1.016,-1.348 -1.016,-2.25 0,-0.789 0.543,-1.379 1.622,-1.809 1.089,-0.437 2.418,-0.875 4.031,-1.324 1.609,-0.449 3.336,-0.981 5.238,-1.586 1.875,-0.594 3.629,-1.395 5.215,-2.402 1.609,-0.993 2.965,-2.309 4.027,-3.93 1.09,-1.617 1.621,-3.68 1.621,-6.152 0,-1.692 -0.375,-3.336 -1.172,-4.887 -0.75,-1.574 -1.875,-2.969 -3.363,-4.223 -1.476,-1.219 -3.281,-2.203 -5.41,-2.937 -2.129,-0.723 -4.523,-1.086 -7.176,-1.086 -5.793,0 -10.176,1.242 -13.101,3.726 -2.93,2.461 -4.735,5.75 -5.41,9.86 l 12.027,0.898"
         style="fill:#20315e;fill-opacity:1;fill-rule:evenodd;stroke:none"
         id="path18" /><path
         d="m 519.898,188.168 h -6.488 v 10.414 h 3.223 c 3.422,0 5.105,1.668 5.105,4.981 v 5.878 h 10.645 v -9.949 h 8.808 v -11.324 h -8.808 v -13.57 c 0,-1.825 0.535,-3.254 1.574,-4.309 1.055,-1.055 2.383,-1.586 3.981,-1.586 0.496,0 0.933,0.012 1.308,0.047 0.363,0.023 0.703,0.07 1.016,0.133 0.301,0.055 0.605,0.152 0.929,0.269 v -10.863 c -0.496,-0.187 -1.05,-0.332 -1.668,-0.449 -1.234,-0.309 -2.699,-0.465 -4.355,-0.465 -4.875,0 -8.637,1.328 -11.301,3.941 -2.648,2.629 -3.969,6.45 -3.969,11.457 v 15.395"
         style="fill:#20315e;fill-opacity:1;fill-rule:evenodd;stroke:none"
         id="path20" /><path
         d="m 549.98,210.805 c 0,1.812 0.704,3.394 2.083,4.746 1.39,1.359 3.011,2.047 4.863,2.047 1.851,0 3.461,-0.688 4.863,-2.047 1.383,-1.352 2.059,-2.934 2.059,-4.746 0,-1.809 -0.676,-3.395 -2.059,-4.758 -1.402,-1.359 -3.012,-2.035 -4.863,-2.035 -1.852,0 -3.473,0.676 -4.863,2.035 -1.379,1.363 -2.083,2.949 -2.083,4.758 z m 0.461,-52.965 h 12.5 v 41.652 h -12.5 V 157.84"
         style="fill:#20315e;fill-opacity:1;fill-rule:evenodd;stroke:none"
         id="path22" /><path
         d="m 576.828,188.168 h -6.476 v 10.414 h 3.234 c 3.398,0 5.094,1.668 5.094,4.981 v 5.878 h 10.644 v -9.949 h 8.797 v -11.324 h -8.797 v -13.57 c 0,-1.825 0.52,-3.254 1.574,-4.309 1.055,-1.055 2.372,-1.586 3.981,-1.586 0.496,0 0.922,0.012 1.305,0.047 0.367,0.023 0.703,0.07 1.019,0.133 0.305,0.055 0.606,0.152 0.918,0.269 v -10.863 c -0.496,-0.187 -1.051,-0.332 -1.668,-0.449 -1.223,-0.309 -2.687,-0.465 -4.344,-0.465 -4.89,0 -8.64,1.328 -11.3,3.941 -2.664,2.629 -3.981,6.45 -3.981,11.457 v 15.395"
         style="fill:#20315e;fill-opacity:1;fill-rule:evenodd;stroke:none"
         id="path24" /><path
         d="m 623.121,157.383 c -2.543,0 -4.84,0.414 -6.945,1.23 -2.106,0.805 -3.899,1.989 -5.406,3.528 -1.516,1.539 -2.7,3.394 -3.524,5.574 -0.848,2.16 -1.258,4.613 -1.258,7.324 v 24.445 h 12.5 v -22.171 c 0,-2.723 0.723,-4.844 2.176,-6.344 1.453,-1.516 3.34,-2.262 5.699,-2.262 2.336,0 4.235,0.746 5.688,2.262 1.437,1.5 2.176,3.621 2.176,6.344 v 22.171 h 12.5 v -41.64 h -9.254 l -1.868,4.07 c -1.039,-0.851 -2.214,-1.598 -3.507,-2.273 -1.114,-0.602 -2.418,-1.121 -3.934,-1.575 -1.512,-0.457 -3.203,-0.683 -5.043,-0.683"
         style="fill:#20315e;fill-opacity:1;fill-rule:evenodd;stroke:none"
         id="path26" /><path
         d="m 659.691,188.168 h -6.484 v 10.414 h 3.231 c 3.398,0 5.093,1.668 5.093,4.981 v 5.878 h 10.649 v -9.949 h 8.804 v -11.324 h -8.804 v -13.57 c 0,-1.825 0.527,-3.254 1.57,-4.309 1.055,-1.055 2.371,-1.586 3.98,-1.586 0.5,0 0.934,0.012 1.305,0.047 0.367,0.023 0.703,0.07 1.02,0.133 0.304,0.055 0.605,0.152 0.929,0.269 v -10.863 c -0.496,-0.187 -1.05,-0.332 -1.668,-0.449 -1.234,-0.309 -2.699,-0.465 -4.355,-0.465 -4.875,0 -8.641,1.328 -11.301,3.941 -2.652,2.629 -3.969,6.45 -3.969,11.457 v 15.395"
         style="fill:#20315e;fill-opacity:1;fill-rule:evenodd;stroke:none"
         id="path28" /><path
         d="m 418.98,78.9219 c -2.652,0 -5.179,0.5312 -7.585,1.5859 -2.411,1.0508 -4.528,2.5313 -6.34,4.4336 -1.828,1.9063 -3.282,4.1445 -4.36,6.7344 -1.074,2.6015 -1.632,5.4336 -1.632,8.5192 0,3.09 0.558,5.918 1.632,8.52 1.078,2.582 2.532,4.84 4.36,6.734 1.812,1.895 3.929,3.371 6.34,4.438 2.406,1.066 4.933,1.597 7.585,1.597 1.61,0 3.071,-0.203 4.407,-0.558 1.328,-0.352 2.441,-0.789 3.383,-1.278 1.101,-0.543 2.046,-1.125 2.859,-1.785 v 18.543 h 12.496 V 79.3672 h -9.266 l -1.839,4.0859 c -0.993,-0.8437 -2.071,-1.6093 -3.235,-2.2851 -1.047,-0.5782 -2.32,-1.1133 -3.808,-1.5625 -1.477,-0.461 -3.145,-0.6836 -4.997,-0.6836 m -7.394,21.2731 c 0,-2.9567 0.883,-5.3473 2.676,-7.2067 1.789,-1.8438 3.968,-2.7461 6.57,-2.7461 2.602,0 4.789,0.9023 6.57,2.7461 1.801,1.8594 2.696,4.25 2.696,7.2067 0,2.957 -0.895,5.36 -2.696,7.196 -1.781,1.843 -3.968,2.769 -6.57,2.769 -2.602,0 -4.781,-0.926 -6.57,-2.769 -1.793,-1.836 -2.676,-4.239 -2.676,-7.196"
         style="fill:#20315e;fill-opacity:1;fill-rule:evenodd;stroke:none"
         id="path30" /><path
         d="m 490.734,91.5859 c -0.554,-1.6914 -1.39,-3.3007 -2.504,-4.875 -1.113,-1.5859 -2.488,-2.9961 -4.171,-4.2265 -1.661,-1.2422 -3.606,-2.2227 -5.774,-2.9453 -2.203,-0.711 -4.68,-1.0664 -7.465,-1.0664 -2.89,0 -5.625,0.5429 -8.175,1.6601 -2.567,1.1094 -4.832,2.6719 -6.766,4.625 -1.949,1.9649 -3.484,4.2461 -4.637,6.8867 -1.137,2.6289 -1.703,5.4805 -1.703,8.5545 0,3.063 0.566,5.926 1.703,8.543 1.153,2.641 2.699,4.922 4.684,6.887 1.972,1.953 4.273,3.504 6.875,4.629 2.637,1.109 5.469,1.656 8.492,1.656 2.906,0 5.613,-0.5 8.141,-1.527 2.531,-1.02 4.746,-2.485 6.621,-4.391 1.886,-1.914 3.375,-4.199 4.425,-6.887 1.09,-2.683 1.637,-5.656 1.637,-8.91 0,-0.4842 -0.039,-0.9685 -0.109,-1.4177 -0.035,-0.4532 -0.098,-0.8907 -0.16,-1.3047 -0.071,-0.4844 -0.129,-0.9453 -0.192,-1.3477 h -29.16 c 0.496,-1.5859 1.488,-3.0273 3.012,-4.3437 1.504,-1.3477 3.437,-2 5.785,-2 1.16,0 2.164,0.1211 3.012,0.4023 0.824,0.2617 1.488,0.5938 1.984,0.9609 0.617,0.3438 1.09,0.8047 1.488,1.3477 z m -19.441,19.0161 c -2.348,0 -4.281,-0.664 -5.785,-2.024 -1.524,-1.371 -2.516,-2.945 -3.012,-4.769 h 17.594 c -0.496,1.824 -1.5,3.398 -3.012,4.769 -1.515,1.36 -3.437,2.024 -5.785,2.024"
         style="fill:#20315e;fill-opacity:1;fill-rule:evenodd;stroke:none"
         id="path32" /><path
         d="m 544.891,91.5859 c 3.711,0 6.617,0.8633 8.757,2.5899 2.118,1.7148 3.532,3.7148 4.2,6.0232 l 13.89,-0.9217 c -0.675,-2.6992 -1.793,-5.3007 -3.34,-7.7851 -1.55,-2.4766 -3.449,-4.6172 -5.734,-6.4727 -2.289,-1.8359 -4.926,-3.3164 -7.926,-4.4414 -2.988,-1.0976 -6.269,-1.6523 -9.847,-1.6523 -3.946,0 -7.672,0.7187 -11.161,2.1992 -3.484,1.4805 -6.519,3.5391 -9.121,6.1758 -2.589,2.6055 -4.656,5.668 -6.171,9.1719 -1.512,3.5039 -2.25,7.3003 -2.25,11.4183 0,4.047 0.738,7.82 2.25,11.359 1.515,3.539 3.582,6.602 6.171,9.23 2.602,2.641 5.637,4.684 9.121,6.176 3.489,1.469 7.215,2.199 11.161,2.199 3.457,0 6.652,-0.55 9.582,-1.667 2.925,-1.11 5.527,-2.59 7.777,-4.426 2.25,-1.856 4.137,-4.012 5.688,-6.481 1.546,-2.472 2.66,-5.078 3.339,-7.801 l -13.89,-0.898 c -0.364,1.148 -0.895,2.238 -1.574,3.266 -0.676,1.027 -1.559,1.929 -2.61,2.711 -1.031,0.793 -2.254,1.406 -3.633,1.894 -1.402,0.485 -2.949,0.746 -4.679,0.746 -2.098,0 -4.078,-0.418 -5.918,-1.246 -1.875,-0.805 -3.473,-1.937 -4.879,-3.394 -1.379,-1.446 -2.481,-3.149 -3.278,-5.149 -0.796,-1.988 -1.211,-4.176 -1.211,-6.519 0,-2.344 0.415,-4.532 1.211,-6.52 0.797,-1.9999 1.899,-3.703 3.278,-5.1601 1.406,-1.4453 3.004,-2.5781 4.879,-3.3945 1.84,-0.8164 3.82,-1.2305 5.918,-1.2305"
         style="fill:#20315e;fill-opacity:1;fill-rule:evenodd;stroke:none"
         id="path34" /><path
         d="m 578.223,132.332 c 0,1.809 0.687,3.395 2.078,4.754 1.39,1.359 3.012,2.035 4.855,2.035 1.864,0 3.469,-0.676 4.875,-2.035 1.379,-1.359 2.055,-2.945 2.055,-4.754 0,-1.801 -0.676,-3.387 -2.055,-4.746 -1.406,-1.375 -3.011,-2.039 -4.875,-2.039 -1.843,0 -3.465,0.664 -4.855,2.039 -1.391,1.359 -2.078,2.945 -2.078,4.746 z m 0.457,-52.9687 h 12.5 v 41.6677 h -12.5 V 79.3633"
         style="fill:#20315e;fill-opacity:1;fill-rule:evenodd;stroke:none"
         id="path36" /><path
         d="m 640.715,91.5859 c -0.559,-1.6914 -1.391,-3.3007 -2.504,-4.875 -1.113,-1.5859 -2.508,-2.9961 -4.176,-4.2265 -1.644,-1.2422 -3.594,-2.2227 -5.773,-2.9453 -2.199,-0.711 -4.68,-1.0664 -7.461,-1.0664 -2.906,0 -5.629,0.5429 -8.18,1.6601 -2.566,1.1094 -4.828,2.6719 -6.766,4.625 -1.949,1.9649 -3.496,4.2461 -4.632,6.8867 -1.137,2.6289 -1.707,5.4805 -1.707,8.5545 0,3.063 0.57,5.926 1.707,8.543 1.136,2.641 2.695,4.922 4.683,6.887 1.973,1.953 4.27,3.504 6.883,4.629 2.625,1.109 5.457,1.656 8.481,1.656 2.906,0 5.605,-0.5 8.144,-1.527 2.527,-1.02 4.731,-2.485 6.617,-4.391 1.887,-1.914 3.364,-4.199 4.442,-6.887 1.078,-2.683 1.621,-5.656 1.621,-8.91 0,-0.4842 -0.035,-0.9685 -0.098,-1.4177 -0.035,-0.4532 -0.109,-0.8907 -0.168,-1.3047 -0.074,-0.4844 -0.133,-0.9453 -0.195,-1.3477 h -29.16 c 0.484,-1.5859 1.492,-3.0273 3.004,-4.3437 1.511,-1.3477 3.449,-2 5.793,-2 1.164,0 2.168,0.1211 3.015,0.4023 0.82,0.2617 1.488,0.5938 1.985,0.9609 0.605,0.3438 1.101,0.8047 1.484,1.3477 z m -14.36,34.8591 h -9.718 l -8.797,11.774 h 12.5 z m -5.085,-15.843 c -2.344,0 -4.282,-0.664 -5.793,-2.024 -1.512,-1.371 -2.52,-2.945 -3.004,-4.769 h 17.582 c -0.485,1.824 -1.489,3.398 -3,4.769 -1.516,1.36 -3.438,2.024 -5.785,2.024"
         style="fill:#20315e;fill-opacity:1;fill-rule:evenodd;stroke:none"
         id="path38" /><path
         d="m 672.652,121.469 c 2.532,0 4.84,-0.403 6.934,-1.231 2.105,-0.804 3.91,-1.976 5.422,-3.515 1.512,-1.539 2.687,-3.395 3.519,-5.575 0.836,-2.175 1.246,-4.625 1.246,-7.324 V 79.3672 h -12.5 v 22.1758 c 0,2.73 -0.722,4.852 -2.175,6.355 -1.453,1.489 -3.34,2.247 -5.711,2.247 -2.324,0 -4.223,-0.758 -5.664,-2.247 -1.45,-1.503 -2.188,-3.625 -2.188,-6.355 V 79.3672 H 649.047 V 121.02 h 9.242 l 1.867,-4.086 c 0.977,0.839 2.129,1.609 3.422,2.285 1.113,0.523 2.434,1.031 3.981,1.515 1.535,0.485 3.242,0.735 5.093,0.735"
         style="fill:#20315e;fill-opacity:1;fill-rule:evenodd;stroke:none"
         id="path40" /><path
         d="m 718.477,121.918 c 2.089,0 4.003,-0.223 5.746,-0.688 1.715,-0.449 3.265,-1.054 4.621,-1.843 1.355,-0.782 2.543,-1.66 3.558,-2.629 1.016,-0.969 1.911,-1.965 2.637,-2.981 1.742,-2.425 3,-5.136 3.809,-8.152 l -12.508,-0.902 c -0.434,1.09 -0.992,2.062 -1.66,2.886 -0.617,0.739 -1.438,1.411 -2.453,2.051 -1.016,0.637 -2.278,0.945 -3.75,0.945 -2.59,0 -4.793,-0.933 -6.571,-2.804 -1.793,-1.883 -2.699,-4.403 -2.699,-7.61 0,-3.1949 0.906,-5.7262 2.699,-7.6051 1.778,-1.8711 3.981,-2.8046 6.571,-2.8046 1.472,0 2.734,0.3046 3.75,0.8984 1.015,0.6016 1.836,1.2773 2.453,1.9883 0.668,0.8633 1.226,1.8554 1.66,2.9922 l 12.508,-0.8985 c -0.809,-3.0273 -2.067,-5.7265 -3.809,-8.1406 -0.726,-1.0313 -1.621,-2.0234 -2.637,-2.9961 -1.015,-0.957 -2.203,-1.8437 -3.558,-2.625 -1.356,-0.7812 -2.906,-1.3984 -4.621,-1.8594 -1.743,-0.4492 -3.657,-0.6836 -5.746,-0.6836 -3.028,0 -5.848,0.5664 -8.469,1.6914 -2.629,1.1016 -4.926,2.6407 -6.91,4.6016 -1.973,1.9531 -3.52,4.2734 -4.66,6.875 -1.149,2.625 -1.719,5.4766 -1.719,8.566 0,3.09 0.57,5.93 1.719,8.571 1.14,2.601 2.687,4.91 4.66,6.875 1.984,1.961 4.281,3.5 6.91,4.601 2.621,1.121 5.441,1.68 8.469,1.68"
         style="fill:#20315e;fill-opacity:1;fill-rule:evenodd;stroke:none"
         id="path42" /><path
         d="m 745.781,132.332 c 0,1.809 0.703,3.395 2.094,4.754 1.375,1.359 3,2.035 4.852,2.035 1.863,0 3.472,-0.676 4.863,-2.035 1.39,-1.359 2.07,-2.945 2.07,-4.754 0,-1.801 -0.68,-3.387 -2.07,-4.746 -1.391,-1.375 -3,-2.039 -4.863,-2.039 -1.852,0 -3.477,0.664 -4.852,2.039 -1.391,1.359 -2.094,2.945 -2.094,4.746 z m 0.461,-52.9687 h 12.496 V 121.031 H 746.242 V 79.3633"
         style="fill:#20315e;fill-opacity:1;fill-rule:evenodd;stroke:none"
         id="path44" /><path
         d="m 808.273,91.5859 c -0.554,-1.6914 -1.39,-3.3007 -2.503,-4.875 -1.114,-1.5859 -2.493,-2.9961 -4.161,-4.2265 -1.66,-1.2422 -3.593,-2.2227 -5.785,-2.9453 -2.191,-0.711 -4.668,-1.0664 -7.465,-1.0664 -2.89,0 -5.613,0.5429 -8.175,1.6601 -2.567,1.1094 -4.821,2.6719 -6.766,4.625 -1.949,1.9649 -3.484,4.2461 -4.637,6.8867 -1.125,2.6289 -1.703,5.4805 -1.703,8.5545 0,3.063 0.578,5.926 1.703,8.543 1.153,2.641 2.711,4.922 4.684,6.887 1.973,1.953 4.281,3.504 6.898,4.629 2.625,1.109 5.457,1.656 8.481,1.656 2.894,0 5.601,-0.5 8.129,-1.527 2.531,-1.02 4.746,-2.485 6.621,-4.391 1.898,-1.914 3.375,-4.199 4.441,-6.887 1.086,-2.683 1.633,-5.656 1.633,-8.91 0,-0.4842 -0.039,-0.9685 -0.098,-1.4177 -0.058,-0.4532 -0.121,-0.8907 -0.183,-1.3047 -0.059,-0.4844 -0.129,-0.9453 -0.192,-1.3477 h -29.16 c 0.496,-1.5859 1.5,-3.0273 3.012,-4.3437 1.516,-1.3477 3.437,-2 5.797,-2 1.164,0 2.164,0.1211 3,0.4023 0.836,0.2617 1.504,0.5938 1.996,0.9609 0.605,0.3438 1.101,0.8047 1.476,1.3477 z m -19.429,19.0161 c -2.36,0 -4.281,-0.664 -5.797,-2.024 -1.512,-1.371 -2.516,-2.945 -3.012,-4.769 h 17.594 c -0.496,1.824 -1.504,3.398 -3.012,4.769 -1.515,1.36 -3.437,2.024 -5.773,2.024"
         style="fill:#20315e;fill-opacity:1;fill-rule:evenodd;stroke:none"
         id="path46" /><path
         d="m 826.789,92.9492 c 0.254,-1.3867 0.836,-2.4883 1.766,-3.3008 0.922,-0.8203 2.179,-1.2187 3.789,-1.2187 1.609,0 2.855,0.3672 3.75,1.1211 0.898,0.7578 1.344,1.5898 1.344,2.5 0,0.7187 -0.543,1.3125 -1.622,1.7617 -1.078,0.4492 -2.421,0.8984 -4.031,1.3477 -1.609,0.4648 -3.336,0.9961 -5.234,1.5976 -1.875,0.6055 -3.61,1.3985 -5.219,2.3906 -1.609,0.9966 -2.953,2.3086 -4.027,3.9416 -1.078,1.633 -1.621,3.68 -1.621,6.152 0,1.692 0.363,3.313 1.113,4.852 0.723,1.539 1.805,2.875 3.191,4.023 1.395,1.149 3.075,2.071 5.082,2.758 2.008,0.695 4.285,1.055 6.813,1.055 5.555,0 9.777,-1.211 12.68,-3.621 2.906,-2.43 4.683,-5.434 5.371,-9.067 l -12.036,-0.898 c -0.253,0.898 -0.789,1.726 -1.671,2.484 -0.86,0.758 -2.008,1.137 -3.422,1.137 -1.418,0 -2.469,-0.297 -3.149,-0.91 -0.676,-0.606 -1.015,-1.352 -1.015,-2.262 0,-0.781 0.531,-1.383 1.621,-1.813 1.078,-0.425 2.422,-0.863 4.027,-1.312 1.602,-0.449 3.34,-0.98 5.231,-1.586 1.886,-0.602 3.64,-1.394 5.226,-2.402 1.609,-0.992 2.953,-2.305 4.031,-3.9261 1.075,-1.6328 1.621,-3.6914 1.621,-6.168 0,-1.6796 -0.39,-3.3125 -1.164,-4.8867 -0.761,-1.5742 -1.898,-2.9687 -3.375,-4.2109 -1.476,-1.2305 -3.281,-2.2149 -5.41,-2.9375 -2.14,-0.7188 -4.523,-1.086 -7.187,-1.086 -5.793,0 -10.164,1.2305 -13.09,3.7149 -2.926,2.4726 -4.731,5.7656 -5.422,9.8711 l 12.039,0.8984"
         style="fill:#20315e;fill-opacity:1;fill-rule:evenodd;stroke:none"
         id="path48" /><path
         d="m 418.98,0.445313 c -2.652,0 -5.179,0.519531 -7.585,1.585937 -2.411,1.05078 -4.528,2.53125 -6.34,4.4375 -1.828,1.89063 -3.282,4.14065 -4.36,6.74215 -1.074,2.5938 -1.632,5.4336 -1.632,8.5079 0,3.0898 0.558,5.9179 1.632,8.5234 1.078,2.5898 2.532,4.8359 4.36,6.7305 1.812,1.9062 3.929,3.3867 6.34,4.4375 2.406,1.0664 4.933,1.5859 7.585,1.5859 1.61,0 3.071,-0.1758 4.407,-0.543 1.328,-0.3554 2.441,-0.7812 3.383,-1.2656 1.101,-0.5469 2.046,-1.1484 2.859,-1.8125 v 18.5664 h 12.496 V 0.90625 h -9.266 L 431.02,4.97656 C 430.027,4.125 428.949,3.37891 427.785,2.70313 426.738,2.10156 425.465,1.58203 423.977,1.13281 422.5,0.667969 420.832,0.445313 418.98,0.445313 M 411.586,21.7188 c 0,-2.9571 0.883,-5.3477 2.676,-7.1954 1.789,-1.8437 3.968,-2.7539 6.57,-2.7539 2.602,0 4.789,0.9102 6.57,2.7539 1.801,1.8477 2.696,4.2383 2.696,7.1954 0,2.9609 -0.895,5.3632 -2.696,7.207 -1.781,1.8359 -3.968,2.7578 -6.57,2.7578 -2.602,0 -4.781,-0.9219 -6.57,-2.7578 -1.793,-1.8438 -2.676,-4.2461 -2.676,-7.207"
         style="fill:#20315e;fill-opacity:1;fill-rule:evenodd;stroke:none"
         id="path50" /><path
         d="M 490.734,13.1211 C 490.18,11.4297 489.344,9.79688 488.23,8.23438 487.117,6.66016 485.742,5.25391 484.059,4.02344 482.398,2.78125 480.453,1.79688 478.285,1.07422 476.082,0.351563 473.605,0 470.82,0 c -2.89,0 -5.625,0.554688 -8.175,1.66797 -2.567,1.11328 -4.832,2.64844 -6.766,4.61328 -1.949,1.96484 -3.484,4.25785 -4.637,6.88675 -1.137,2.6289 -1.703,5.4804 -1.703,8.5586 0,3.0742 0.566,5.9257 1.703,8.5547 1.153,2.625 2.699,4.9218 4.684,6.8867 1.972,1.9531 4.273,3.4883 6.875,4.6133 2.637,1.1093 5.469,1.6679 8.492,1.6679 2.906,0 5.613,-0.5078 8.141,-1.539 2.531,-1.0157 4.746,-2.4844 6.621,-4.3907 1.886,-1.9023 3.375,-4.1875 4.425,-6.8867 1.09,-2.6836 1.637,-5.6562 1.637,-8.9062 0,-0.4883 -0.039,-0.961 -0.109,-1.4102 -0.035,-0.4492 -0.098,-0.8867 -0.16,-1.3008 -0.071,-0.4843 -0.129,-0.9492 -0.192,-1.3633 h -29.16 c 0.496,-1.5703 1.488,-3.0273 3.012,-4.3398 1.504,-1.3398 3.437,-2.0039 5.785,-2.0039 1.16,0 2.164,0.1328 3.012,0.4023 0.824,0.2735 1.488,0.5938 1.984,0.961 0.617,0.3554 1.09,0.8164 1.488,1.3594 z m -19.441,19.0156 c -2.348,0 -4.281,-0.6836 -5.785,-2.0351 -1.524,-1.3594 -2.516,-2.9453 -3.012,-4.7578 h 17.594 c -0.496,1.8125 -1.5,3.3984 -3.012,4.7578 -1.515,1.3515 -3.437,2.0351 -5.785,2.0351"
         style="fill:#20315e;fill-opacity:1;fill-rule:evenodd;stroke:none"
         id="path52" /><path
         d="m 499.063,0.898438 h 12.5 V 57.9336 h -12.5 V 0.898438"
         style="fill:#20315e;fill-opacity:1;fill-rule:evenodd;stroke:none"
         id="path54" /><path
         d="m 593.031,57.9453 -18.984,-40.293 -18.973,40.293 H 543.035 V 0.90625 h 13.418 V 29.4258 l 13.43,-28.51955 h 8.336 L 591.648,29.4258 V 0.90625 h 13.407 V 57.9453 h -12.024"
         style="fill:#20315e;fill-opacity:1;fill-rule:evenodd;stroke:none"
         id="path56" /><path
         d="m 633.766,43.457 c 2.531,0 4.867,-0.4179 7.031,-1.2695 2.164,-0.8516 4.027,-2.0312 5.601,-3.5703 1.575,-1.5391 2.782,-3.3633 3.668,-5.4805 0.86,-2.1289 1.282,-4.4023 1.282,-6.8867 V 0.890625 h -9.27 l -1.836,4.085935 c -1.054,-0.84375 -2.215,-1.60937 -3.523,-2.26172 -1.114,-0.60546 -2.418,-1.13671 -3.934,-1.58593 -1.508,-0.449222 -3.191,-0.687504 -5.043,-0.687504 -4.625,0 -8.179,1.113284 -10.648,3.316404 -2.469,2.19922 -3.715,5.01563 -3.715,8.44529 0,2.0625 0.437,3.9414 1.269,5.6797 0.825,1.707 2.227,3.1836 4.211,4.4297 1.973,1.2266 4.575,2.1992 7.817,2.8828 3.258,0.711 7.308,1.0547 12.183,1.0547 0,2.0586 -0.531,3.6328 -1.582,4.6992 -1.043,1.086 -2.375,1.6328 -3.968,1.6328 -1.188,0 -2.118,-0.2148 -2.821,-0.6757 -0.726,-0.461 -1.297,-0.9219 -1.718,-1.4102 -0.497,-0.6016 -0.832,-1.25 -1.028,-1.9883 l -12.488,0.9024 c 0.363,2.0586 1.016,3.9414 1.937,5.6679 0.934,1.7266 2.153,3.2071 3.664,4.4375 1.516,1.2305 3.344,2.211 5.504,2.8867 2.145,0.711 4.637,1.0547 7.407,1.0547 m -2.77,-33.94919 c 2.336,0 4.234,0.69529 5.688,2.12889 1.441,1.418 2.175,3.2656 2.175,5.5508 v 1.832 c -2.66,0 -4.839,-0.1406 -6.531,-0.4257 -1.695,-0.2579 -3.023,-0.6368 -3.98,-1.125 -0.957,-0.4727 -1.61,-1.0508 -1.938,-1.7266 -0.347,-0.6484 -0.508,-1.375 -0.508,-2.1641 0,-1.1484 0.446,-2.1054 1.332,-2.914 0.895,-0.78129 2.153,-1.15629 3.762,-1.15629"
         style="fill:#20315e;fill-opacity:1;fill-rule:evenodd;stroke:none"
         id="path58" /><path
         d="m 681.445,42.9922 c 0.555,0 1.063,-0.0234 1.524,-0.082 0.461,-0.0704 0.847,-0.1289 1.16,-0.1797 0.363,-0.0586 0.703,-0.1172 1.016,-0.1758 V 29.8828 c -0.372,0.1055 -0.809,0.2617 -1.305,0.4492 -0.422,0.1055 -0.922,0.211 -1.477,0.3086 -0.554,0.0938 -1.175,0.1407 -1.851,0.1407 -2.348,0 -4.246,-0.7696 -5.699,-2.2735 -1.442,-1.5156 -2.176,-3.6094 -2.176,-6.3398 V 0.890625 H 660.148 V 42.5547 h 9.258 l 1.852,-4.543 c 0.734,0.9102 1.633,1.7383 2.683,2.4492 0.86,0.6719 1.926,1.2657 3.207,1.7735 1.247,0.5078 2.684,0.7578 4.297,0.7578"
         style="fill:#20315e;fill-opacity:1;fill-rule:evenodd;stroke:none"
         id="path60" /><path
         d="m 145.254,137.047 c 0.035,12.922 10.332,23.391 23.375,24.242 h 5.746 v 54.289 h -5.285 -0.145 -0.57 C 124.297,215.203 88.6797,180.234 88.5938,137.152 h -0.0274 v -0.082 -0.086 h 0.0274 C 88.6797,93.7617 124.309,58.7227 168.363,58.4141 h 6.012 v 54.2889 h -5.852 c -12.96,0.879 -23.234,11.36 -23.269,24.297 v 0.031 0.016"
         style="fill:#2a3d8f;fill-opacity:1;fill-rule:evenodd;stroke:none"
         id="path62" /><path
         d="m 269.805,137.148 v 78.43 c -44.418,0 -80.41,-35.109 -80.496,-78.43 h -0.012 V 58.4258 h 80.508 80.484 v 78.4292 0.293 78.43 c -44.402,0 -80.375,-35.109 -80.484,-78.43"
         style="fill:#2a3d8f;fill-opacity:1;fill-rule:evenodd;stroke:none"
         id="path64" /><path
         d="M 0.0117188,137.219 H 0 V 58.4102 H 76.0352 V 215.574 C 33.6992,213.281 0.109375,179.082 0.0117188,137.219"
         style="fill:#2a3d8f;fill-opacity:1;fill-rule:evenodd;stroke:none"
         id="path66" /></g></g></svg>
